# xmcd
#
# Track frame offsets:
#	150
#	91160
#	120271
#	162235
#
# Disc length: 2895 seconds
# Revision: 0
# Processed by: cddbd v1.5.2PL0 Copyright (c) Steve Scherf et al.
# Submitted via: dBpowerAMP V12.0
#
DISCID=210b4d04
DTITLE=Hale Dwoskin - Introduction to the Sedona Method
DYEAR=2006
DGENRE=Acapella
TTITLE0=Introduction
TTITLE1=Unique Benefits
TTITLE2=Lester in His Own Words
TTITLE3=Graduate Testimonials
EXTD=
EXTT0=
EXTT1=
EXTT2=
EXTT3=
PLAYORDER=
